<?xml version="1.0" encoding="UTF-8" standalone="no"?><svg xmlns="http://www.w3.org/2000/svg" xmlns:xlink="http://www.w3.org/1999/xlink" fill="#2d3f4e" height="48.5" preserveAspectRatio="xMidYMid meet" version="1" viewBox="0.0 -0.5 48.0 48.5" width="48" zoomAndPan="magnify"><g id="change1_1"><path d="M0 0L0 0" fill="inherit" stroke="#449fdb"/></g><g id="change1_2"><path d="M24 2c12.128 0 22 9.872 22 22s-9.872 22-22 22c-12.13 0-22-9.872-22-22s9.87-22 22-22zM24 0c-13.254 0-24 10.746-24 24s10.746 24 24 24 24-10.746 24-24-10.746-24-24-24v0z" fill="inherit"/></g><g id="change1_3"><path d="M23.528 37c-7.194 0-13.046-5.832-13.046-13s5.79-13 12.906-13c4.246 0 8.096 2.072 10.562 5.688 0.31 0.458 0.194 1.078-0.264 1.388-0.454 0.31-1.076 0.198-1.388-0.264-2.088-3.058-5.334-4.812-8.91-4.812-6.014 0-10.906 4.936-10.906 11s4.956 11 11.046 11c3.022 0 5.948-1.254 8.018-3.438 0.38-0.4 1.014-0.418 1.414-0.042 0.402 0.378 0.418 1.014 0.040 1.412-2.45 2.588-5.902 4.068-9.472 4.068z" fill="inherit"/></g></svg>