<?xml version="1.0" encoding="UTF-8" standalone="no"?><svg xmlns="http://www.w3.org/2000/svg" xmlns:xlink="http://www.w3.org/1999/xlink" fill="#ffffff" height="2102.9" preserveAspectRatio="xMidYMid meet" version="1" viewBox="480.8 448.5 2089.9 2102.9" width="2089.9" zoomAndPan="magnify"><g id="change1_1"><path d="M2310.43,559.64c-78.33-58.74-165.11-95.56-262.48-107.14c-4.6-0.55-9.03-2.61-13.53-3.97c-32.88,0-65.76,0-98.64,0 c-30.67,6.21-61.85,10.6-91.93,18.94c-121.79,33.77-219.34,103.03-292.93,205.55c-10.28,14.32-20.7,19.97-38.58,19.94 c-321.87-0.59-643.74-0.44-965.61-0.35c-9.53,0-19.2,0.26-28.57,1.83c-22.57,3.81-34.7,17.32-36.79,40.05 c-0.56,6.12-0.26,12.32-0.26,18.48c-0.01,561.56-0.01,1123.12-0.01,1684.69c0,7.23,0,14.46,0,24.55 c370.17-370.17,737.81-737.82,1106.71-1106.71c27.41,34.42,52.5,65.93,77.9,97.83c-56.32,55.51-112.17,110.56-166.12,163.73 c282.78,282.78,561.91,561.91,842.29,842.29c0-7.32,0-15.16,0-23.01c0-336.25,0.09-672.5-0.28-1008.76 c-0.02-15.24,3.82-27.19,13.39-39.08c50.37-62.55,93.76-129.21,125.02-203.84C2570.75,968.06,2498.41,700.6,2310.43,559.64z M1115.04,1461.2c-134.68,60.33-299.45,10.72-379.84-113.38c-85.42-131.87-62.29-297.13,56.43-403.26 c105.36-94.19,279.47-99.69,388.14-10.42c-23.57,30.6-46.41,60.26-70.51,91.55c-60.51-42.26-125.12-51.03-192.55-22.65 c-48.85,20.56-84.21,56.77-102.17,106.66c-38.08,105.75,15.64,217.32,118.58,249.94c101.29,32.09,212.32-23.36,239.74-122.55 c-29.74,0-58.67,0-87.6,0c-29.35,0-58.7,0-89.86,0c0-39.18,0-77.02,0-116.31c100.96,0,201.91,0,302.81,0 C1317.13,1256.49,1259.28,1396.59,1115.04,1461.2z M2326.08,1209.97c-46.13,70.12-99.66,135.49-151.44,201.77 c-62.73,80.29-120.14,163.57-144.92,264.02c-11.71,47.47-17.06,96.51-25.78,147.71c-11.67,0-26.45,0-41.09,0 c-4.49-36.73-6.99-72.83-13.57-108.16c-17.77-95.34-61.04-179.49-119.2-256.05c-52.16-68.67-107.3-135.1-158.69-204.33 c-46.1-62.11-77.77-131.15-90.63-208.56c-33.23-199.96,94.88-401.88,290.54-456.06c234.8-65.01,468.92,78.81,514.7,317.36 C2406.77,1016.01,2386.19,1118.61,2326.08,1209.97z"/><path d="M579.84,2551.46c553.01,0,1110.59,0,1667,0c-278.76-278.76-557.47-557.47-833.5-833.49 C1135.41,1995.9,856.46,2274.85,579.84,2551.46z"/><path d="M1984.26,795.19c-87.17,0.58-159.11,72.72-159.23,159.67c-0.12,87.43,71.3,159.08,158.87,159.38 c87.45,0.3,159.02-70.1,160.66-158.01C2146.15,870.17,2070.95,794.61,1984.26,795.19z"/></g></svg>