<?xml version="1.0" encoding="UTF-8" standalone="no"?><svg xmlns="http://www.w3.org/2000/svg" xmlns:xlink="http://www.w3.org/1999/xlink" fill="#2d3f4e" height="128" preserveAspectRatio="xMidYMid meet" version="1" viewBox="6.3 0.0 119.2 128.0" width="119.2" zoomAndPan="magnify"><g id="change1_1"><path d="M97.9,50c0.1-0.7,0.1-1.3,0.1-2c0-8.8-7.2-16-16-16s-16,7.2-16,16c0,0.7,0.1,1.3,0.1,2h4c-0.1-0.7-0.2-1.3-0.2-2 c0-6.6,5.4-12,12-12s12,5.4,12,12c0,0.7-0.1,1.3-0.2,2H97.9z"/></g><g id="change1_2"><path d="M85.3,50c0-0.2,0.1-0.5,0.1-0.7c0-0.5-0.1-0.9-0.2-1.3c-0.1-0.3-0.3-0.6-0.5-0.9s-0.5-0.4-0.8-0.6c-0.3-0.2-0.6-0.3-0.9-0.4 l-0.8-0.3c-0.2-0.1-0.5-0.2-0.7-0.3s-0.3-0.4-0.3-0.6c0-0.2,0-0.3,0.1-0.4c0.1-0.1,0.1-0.2,0.3-0.2c0.1-0.1,0.2-0.1,0.3-0.1 s0.2,0,0.4,0c0.5,0,0.9,0,1.3,0.1s0.7,0.2,1,0.4c0.3-0.7,0.5-1.4,0.6-2.1c-0.4-0.1-0.8-0.3-1.1-0.3c-0.3-0.1-0.7-0.2-1-0.2v-1.3 c-0.1,0-0.3-0.1-0.5-0.1s-0.3,0-0.4,0c-0.1,0-0.2,0-0.4,0c-0.2,0-0.3,0-0.5,0.1V42c-0.8,0.1-1.5,0.5-1.9,1c-0.5,0.5-0.7,1.2-0.7,2.1 c0,0.4,0.1,0.8,0.2,1.1s0.3,0.6,0.5,0.8s0.4,0.4,0.7,0.6c0.3,0.2,0.5,0.3,0.8,0.4l0.8,0.3c0.3,0.1,0.6,0.3,0.8,0.4 c0.2,0.2,0.3,0.4,0.3,0.7c0,0.2-0.1,0.4-0.2,0.6H85.3z"/></g><g id="change1_3"><path d="M115,25.6v-7.2c0-2.4-2-4.4-4.4-4.4H92.1c0.7-0.5,1.4-1.1,2-1.7c3.3-3.5,5.3-8.4,2.8-11.1C96.1,0.4,95,0,93.8,0 c-2.4,0-5.2,1.6-7.7,4.2c-2.1,2.2-3.4,6-4.1,8.9c-0.7-2.9-2-6.7-4.1-8.9C75.5,1.6,72.6,0,70.2,0c-1.2,0-2.3,0.4-3.1,1.2 c-2.5,2.7-0.5,7.6,2.8,11.1c0.6,0.6,1.3,1.2,2,1.7H53.4C51,14,49,16,49,18.4v7.2c0,2.4,2,4.4,4.4,4.4H74h16h20.6 C113,30,115,28,115,25.6z M89,6.9c2.2-2.3,4.2-3,4.8-3c0.1,0,0.1,0,0.2,0c0.3,0.5-0.2,2.9-2.8,5.6c-1.2,1.3-3.3,2.5-5,3.4 C87,10.2,87.9,8,89,6.9z M70,4c0.1,0,0.1,0,0.2,0C71,4,72.9,4.7,75,6.9c1,1.1,2,3.2,2.8,6c-1.7-0.9-3.8-2.1-5-3.4 C70.3,6.8,69.8,4.4,70,4z M53.4,26c-0.2,0-0.4-0.2-0.4-0.4v-7.2c0-0.2,0.2-0.4,0.4-0.4H74v8H53.4z M78,26v-8h8v8H78z M111,25.6 c0,0.2-0.2,0.4-0.4,0.4H90v-8h20.6c0.2,0,0.4,0.2,0.4,0.4V25.6z"/></g><g id="change1_4"><path d="M9.1,86.7l3.7-1l28.1-8.8c0.5-0.1,0.9-0.2,1.4-0.3l0.4,0c1.1-0.1,2.2,0.2,3.3,0.8l30.4,16.9c0.1,0,0.1,0.1,0.2,0.1 c3.3,1.4,5.6,4.7,5,7.3c-0.3,1.7-1.4,3.1-2.8,4c-1.4,0.8-3.1,1-4.6,0.6L54.5,95.9c-1-0.5-2.2-0.1-2.7,0.8c-0.5,1-0.1,2.2,0.8,2.7 l19.8,10.3c0.1,0.1,0.2,0.1,0.3,0.1c1,0.3,2,0.5,3,0.5c1.7,0,3.4-0.5,5-1.3c1-0.6,1.8-1.3,2.6-2.2L113,90.4c1.2-0.7,2.6-0.8,3.9-0.4 c1.3,0.4,2.3,1.3,2.9,2.5c1.2,2.4,0.2,5.5-2.3,6.9l-45.8,24.3c-0.7,0.4-1.6,0.5-2.4,0.1l-33.2-19.3l-0.4-0.2 c-2.1-1.1-4.7-2.6-7.5-1.6l-16.2,5.1c-1.1,0.3-1.6,1.5-1.3,2.5c0.3,1.1,1.5,1.6,2.5,1.3l16.3-5.2c1.2-0.4,2.7,0.4,4.3,1.3l33.5,19.5 c0,0,0.1,0,0.1,0.1c0.9,0.5,1.9,0.7,2.9,0.7c1.1,0,2.2-0.3,3.2-0.8l45.8-24.3c4.4-2.4,6.2-7.9,4-12.2c-1.1-2.2-3-3.8-5.3-4.5 c-2.4-0.7-4.8-0.5-7,0.7L85.6,101c0.1-4.5-3.5-8.7-7.5-10.4L47.9,73.8c-1.7-0.9-3.6-1.4-5.4-1.3l-0.5,0c-0.8,0.1-1.6,0.2-2.3,0.4 l-27.1,8.5L8,82.8c-1.1,0.3-1.7,1.4-1.4,2.5C6.9,86.3,8,87,9.1,86.7z"/></g><g id="change1_5"><path d="M88.2,95l1.8-1V58h17l0,26.6l2.2-1.2c0.6-0.3,1.2-0.6,1.8-0.8V58c0-2.2-1.8-4-4-4H57c-2.2,0-4,1.8-4,4v14.1l4,2.2V58h17 v25.7l4,2.2V59h8v32.7C86.9,92.7,87.6,93.8,88.2,95z"/></g></svg>