<?xml version="1.0" encoding="UTF-8"?><svg xmlns="http://www.w3.org/2000/svg" xmlns:xlink="http://www.w3.org/1999/xlink" height="1021.2" preserveAspectRatio="xMidYMid meet" version="1.0" viewBox="614.5 488.3 770.9 1021.2" width="770.9" zoomAndPan="magnify"><g id="change1_1"><path d="M 614.539062 987.371094 C 614.539062 935.339844 624.734375 884.859375 644.835938 837.320312 C 664.253906 791.421875 692.042969 750.199219 727.4375 714.808594 C 762.832031 679.410156 804.054688 651.621094 849.957031 632.210938 C 897.488281 612.101562 947.96875 601.910156 1000 601.910156 C 1038.441406 601.910156 1076.28125 607.550781 1112.660156 618.660156 L 1204.148438 497.320312 C 1209.828125 489.769531 1220.558594 488.269531 1228.109375 493.960938 C 1235.648438 499.648438 1237.160156 510.378906 1231.46875 517.921875 L 988.179688 840.609375 C 987.394531 841.648438 986.503906 842.578125 985.546875 843.390625 C 1009.808594 871.320312 1012.171875 913.429688 989.019531 944.128906 L 943.519531 1004.480469 C 916.925781 1039.75 866.597656 1046.808594 831.328125 1020.21875 C 796.0625 993.628906 789 943.300781 815.59375 908.03125 C 815.804688 907.75 816.023438 907.488281 816.257812 907.230469 C 816.4375 906.941406 816.632812 906.648438 816.84375 906.371094 L 861.09375 847.679688 C 884.242188 816.980469 925.375 807.660156 958.90625 823.300781 C 959.421875 822.160156 960.066406 821.050781 960.855469 820 L 1091.960938 646.121094 C 1062.109375 638.089844 1031.28125 634.03125 1000 634.03125 C 805.167969 634.03125 646.65625 792.53125 646.65625 987.371094 C 646.65625 1094.558594 694.511719 1194.738281 777.945312 1262.230469 C 784.839844 1267.808594 785.90625 1277.921875 780.328125 1284.820312 C 777.15625 1288.738281 772.515625 1290.78125 767.835938 1290.78125 C 764.285156 1290.78125 760.71875 1289.609375 757.746094 1287.199219 C 666.734375 1213.589844 614.539062 1104.300781 614.539062 987.371094 Z M 967.917969 1107.199219 C 975.917969 1096.589844 987.59375 1089.730469 1000.789062 1087.878906 C 1003.148438 1087.550781 1005.5 1087.378906 1007.839844 1087.378906 C 1018.589844 1087.378906 1029 1090.839844 1037.710938 1097.410156 C 1048.320312 1105.410156 1055.179688 1117.089844 1057.03125 1130.28125 C 1058.890625 1143.480469 1055.5 1156.589844 1047.5 1167.199219 C 1039.5 1177.808594 1027.828125 1184.679688 1014.628906 1186.53125 C 1001.429688 1188.378906 988.320312 1184.988281 977.710938 1176.988281 C 967.101562 1168.988281 960.238281 1157.320312 958.386719 1144.121094 C 956.535156 1130.921875 959.921875 1117.808594 967.917969 1107.199219 Z M 1338.101562 1172.621094 C 1369.101562 1116.128906 1385.460938 1052.199219 1385.460938 987.371094 C 1385.460938 859.460938 1322.191406 740.140625 1216.21875 668.21875 C 1208.878906 663.230469 1198.890625 665.148438 1193.910156 672.480469 C 1188.929688 679.820312 1190.839844 689.808594 1198.179688 694.789062 C 1295.339844 760.730469 1353.339844 870.109375 1353.339844 987.371094 C 1353.339844 1048.519531 1337.46875 1108.769531 1307.449219 1161.621094 C 1305.679688 1164.738281 1305.011719 1168.351562 1305.53125 1171.890625 L 1340.21875 1408.191406 L 1139.050781 1317.660156 C 1135.140625 1315.898438 1130.699219 1315.78125 1126.699219 1317.320312 C 1086.300781 1332.839844 1043.671875 1340.710938 1000 1340.710938 C 961.597656 1340.710938 924.078125 1334.640625 888.164062 1322.648438 L 975.089844 1207.359375 C 990.320312 1214.429688 1007.601562 1216.359375 1024.179688 1212.761719 C 1042.269531 1208.828125 1058.359375 1198.539062 1069.480469 1183.78125 L 1174.769531 1044.140625 C 1179.328125 1038.078125 1178.121094 1029.429688 1172.058594 1024.859375 C 1166 1020.289062 1157.351562 1021.5 1152.78125 1027.558594 L 1083.101562 1119.988281 C 1080.101562 1106.808594 1073.710938 1094.628906 1064.539062 1084.699219 L 1123.980469 1005.851562 C 1128.550781 999.789062 1127.339844 991.140625 1121.28125 986.570312 C 1118.339844 984.359375 1114.730469 983.421875 1111.078125 983.929688 C 1107.441406 984.441406 1104.210938 986.339844 1102 989.269531 L 1042.550781 1068.121094 C 1030.480469 1062.03125 1017.011719 1059.238281 1003.519531 1059.988281 L 1073.199219 967.558594 C 1075.421875 964.628906 1076.351562 961 1075.839844 957.359375 C 1075.328125 953.71875 1073.429688 950.5 1070.5 948.28125 C 1067.558594 946.070312 1063.941406 945.128906 1060.300781 945.640625 C 1056.660156 946.148438 1053.429688 948.050781 1051.21875 950.988281 L 945.9375 1090.628906 C 934.808594 1105.390625 929.339844 1123.691406 930.539062 1142.160156 C 931.640625 1159.089844 938.242188 1175.171875 949.238281 1187.859375 L 852.914062 1315.628906 C 849.847656 1317.339844 847.3125 1320.058594 845.886719 1323.570312 C 845.570312 1324.339844 845.339844 1325.128906 845.152344 1325.921875 L 728.195312 1481.039062 C 725.113281 1485.128906 723.421875 1489.941406 723.425781 1494.578125 C 723.429688 1499.609375 725.492188 1504.050781 729.082031 1506.761719 C 731.539062 1508.609375 734.480469 1509.488281 737.550781 1509.488281 C 743.386719 1509.488281 749.695312 1506.300781 754.046875 1500.539062 L 867.859375 1349.578125 C 910.109375 1365.011719 954.492188 1372.828125 1000 1372.828125 C 1045.351562 1372.828125 1089.691406 1365.039062 1131.898438 1349.660156 L 1353.769531 1449.511719 C 1355.878906 1450.460938 1358.128906 1450.921875 1360.359375 1450.921875 C 1363.800781 1450.921875 1367.199219 1449.820312 1370.039062 1447.679688 C 1374.71875 1444.140625 1377.101562 1438.339844 1376.25 1432.53125 L 1338.101562 1172.621094" fill="#2d3f4e"/></g></svg>